# xmcd
#
# Track frame offsets:
#   150
#   12780
#   28722
#   44678
#   57002
#   73607
#   88870
#   104052
#   117269
#   129299
#   144589
#   160069
#   171929
#   189286
#   206130
#   227117
#
# Disc length: 3188 seconds
#
# Revision: 0
# Processed by: cddbd v1.5.2PL0 Copyright (c) Steve Scherf et al.
# Submitted via: uFREEDB ActiveX Control 1.5
#
DISCID=e00c7210
DTITLE=TRIO CHAPAHALL'S  - TOME TOME - VOL 8 (2006)
DYEAR=2006
DGENRE=Sertanejo
TTITLE0=01 Tome tome
TTITLE1=02 Primavera
TTITLE2=03 Chamego bom
TTITLE3=04 Poçoca de amendoim
TTITLE4=05 Pago quando puder
TTITLE5=06 Preciso de você
TTITLE6=07 Sol de primavera
TTITLE7=08 Pega fogo cabaré
TTITLE8=09 Só quero pescar
TTITLE9=10 Fonte de mel
TTITLE10=11 Amor rebelde
TTITLE11=12 O problema da urtiga ( Macumba )
TTITLE12=13 Choram as rosas
TTITLE13=14 Difícil demais
TTITLE14=15 Frio do meu quarto
TTITLE15=16 Hoje eu vou pra rua
EXTD=
EXTT0=
EXTT1=
EXTT2=
EXTT3=
EXTT4=
EXTT5=
EXTT6=
EXTT7=
EXTT8=
EXTT9=
EXTT10=
EXTT11=
EXTT12=
EXTT13=
EXTT14=
EXTT15=
PLAYORDER=
